<svg xmlns="http://www.w3.org/2000/svg" xmlns:xlink="http://www.w3.org/1999/xlink" width="500" zoomAndPan="magnify" viewBox="0 0 375 374.999991" height="500" preserveAspectRatio="xMidYMid meet" version="1.0"><defs><clipPath id="490548ef79"><path d="M 141 280 L 232 280 L 232 367.074219 L 141 367.074219 Z M 141 280 " clip-rule="nonzero"/></clipPath></defs><rect x="-37.5" width="450" fill="#ffffff" y="-37.499999" height="449.999989" fill-opacity="1"/><rect x="-37.5" width="450" fill="#ffffff" y="-37.499999" height="449.999989" fill-opacity="1"/><path fill="#1b435f" d="M 222.75 256.804688 C 222.894531 264.605469 222.894531 268.507812 222.894531 268.507812 C 222.894531 268.507812 197.898438 268.507812 147.757812 268.507812 C 118.570312 239.464844 103.976562 224.871094 103.976562 224.871094 C 114.238281 214.613281 119.292969 209.410156 119.292969 209.410156 C 113.371094 206.664062 109.902344 200.304688 110.914062 193.804688 C 111.78125 187.300781 116.691406 182.101562 123.195312 180.945312 C 129.699219 179.789062 136.199219 182.96875 139.234375 188.890625 C 149.347656 178.34375 154.261719 172.996094 154.261719 172.996094 C 192.261719 211 211.191406 230.074219 211.191406 230.074219 C 220.730469 237.296875 224.628906 246.253906 222.75 256.804688 Z M 222.75 256.804688 " fill-opacity="1" fill-rule="evenodd"/><path fill="#a7e101" d="M 131.71875 85.289062 C 142.269531 96.125 147.46875 101.617188 147.46875 101.617188 C 131.863281 119.96875 131.71875 146.988281 147.324219 165.484375 C 147.324219 165.484375 144.582031 168.375 139.234375 174.007812 C 129.265625 168.085938 116.546875 169.53125 108.3125 177.621094 C 99.933594 185.710938 98.199219 198.429688 103.976562 208.398438 C 103.976562 208.398438 101.375 211.144531 96.175781 216.488281 C 52.683594 169.53125 52.683594 96.847656 96.175781 49.746094 C 106.722656 60.871094 112.070312 66.359375 112.070312 66.359375 C 114.671875 60.726562 120.738281 57.257812 126.953125 58.125 C 133.308594 58.992188 138.222656 63.761719 139.378906 69.972656 C 140.390625 76.1875 137.355469 82.398438 131.71875 85.289062 Z M 131.71875 85.289062 " fill-opacity="1" fill-rule="evenodd"/><path fill="#00f2e6" d="M 155.128906 93.09375 C 174.203125 79.367188 200.066406 79.65625 218.996094 93.816406 C 218.996094 93.816406 224.339844 88.324219 235.035156 77.488281 C 237.777344 83.554688 244.136719 87.023438 250.640625 86.15625 C 257.285156 85.144531 262.34375 80.089844 263.355469 73.441406 C 264.222656 66.9375 260.753906 60.582031 254.683594 57.835938 C 254.683594 57.835938 259.453125 52.777344 269.277344 42.519531 C 223.183594 -1.695312 150.503906 -1.839844 104.265625 42.230469 C 109.613281 47.578125 112.359375 50.324219 112.359375 50.324219 C 122.183594 44.6875 134.753906 46.421875 142.703125 54.367188 C 150.792969 62.460938 152.527344 74.886719 146.890625 84.855469 C 152.382812 90.347656 155.128906 93.09375 155.128906 93.09375 Z M 155.128906 93.09375 " fill-opacity="1" fill-rule="evenodd"/><path fill="#ff003d" d="M 226.941406 101.328125 C 241.824219 120.257812 241.390625 146.988281 225.929688 165.484375 C 225.929688 165.484375 231.710938 170.828125 243.125 181.523438 C 236.910156 183.980469 233.011719 190.480469 233.878906 197.128906 C 234.746094 203.773438 239.945312 208.976562 246.59375 209.84375 C 253.238281 210.855469 259.597656 207.097656 262.199219 200.882812 C 262.199219 200.882812 267.832031 206.664062 279.25 218.222656 C 322.308594 170.394531 321.441406 97.570312 277.515625 50.609375 C 277.515625 50.609375 275.058594 53.210938 270 58.558594 C 276.214844 68.382812 274.769531 81.242188 266.53125 89.480469 C 258.152344 97.714844 245.292969 99.160156 235.46875 92.804688 C 235.46875 92.804688 232.722656 95.691406 226.941406 101.328125 Z M 226.941406 101.328125 " fill-opacity="1" fill-rule="evenodd"/><g clip-path="url(#490548ef79)"><path fill="#4b4b4b" d="M 223.90625 280.933594 C 226.363281 280.644531 228.675781 281.800781 230.121094 283.824219 C 231.421875 285.847656 231.566406 288.449219 230.410156 290.613281 C 229.109375 292.78125 226.941406 294.082031 224.484375 293.9375 C 224.484375 293.9375 222.605469 293.9375 218.996094 293.9375 C 216.105469 294.804688 214.082031 297.40625 214.082031 300.441406 C 214.226562 303.476562 216.25 306.074219 219.140625 306.796875 C 219.140625 306.796875 220.730469 306.796875 223.761719 306.796875 C 226.941406 307.085938 229.253906 309.832031 229.253906 313.011719 C 229.253906 316.191406 226.941406 318.792969 223.761719 319.082031 C 224.628906 319.082031 223.183594 319.082031 219.71875 319.082031 C 216.539062 319.660156 214.226562 322.402344 214.082031 325.726562 C 214.082031 328.90625 216.25 331.652344 219.429688 332.375 C 219.429688 332.375 221.160156 332.519531 224.484375 332.664062 C 225.0625 340.609375 222.171875 344.945312 215.671875 345.523438 C 212.636719 345.8125 210.035156 347.402344 207.578125 350.289062 C 207.578125 350.289062 203.101562 355.925781 194.285156 367.339844 C 194.285156 367.339844 189.519531 367.339844 179.980469 367.339844 C 179.980469 367.339844 175.503906 362.140625 166.6875 351.589844 C 164.808594 347.257812 161.484375 345.089844 156.71875 344.945312 C 151.515625 343.5 148.480469 338.152344 149.78125 332.953125 C 149.78125 332.953125 162.207031 332.953125 187.207031 332.953125 C 190.820312 332.808594 193.5625 329.917969 193.5625 326.304688 C 193.417969 322.691406 190.53125 319.804688 187.0625 319.804688 C 186.773438 319.804688 174.78125 319.945312 151.082031 320.089844 C 147.324219 320.089844 144.4375 317.058594 144.4375 313.445312 C 144.4375 309.832031 147.324219 306.796875 151.082031 306.796875 C 151.082031 306.796875 162.929688 306.796875 186.773438 306.796875 C 189.085938 307.085938 191.394531 306.074219 192.550781 304.054688 C 193.851562 302.175781 193.851562 299.574219 192.550781 297.695312 C 191.394531 295.671875 189.085938 294.660156 186.773438 294.949219 C 186.773438 294.949219 173.769531 295.09375 148.046875 295.238281 C 144.4375 294.949219 141.546875 291.914062 141.691406 288.304688 C 141.691406 284.691406 144.582031 281.800781 148.335938 281.65625 C 198.765625 281.078125 223.90625 280.933594 223.90625 280.933594 Z M 223.90625 280.933594 " fill-opacity="1" fill-rule="evenodd"/></g></svg>